<?xml version="1.0" encoding="UTF-8"?>
<svg version="1.1" viewBox="0 0 1333.3 1333.3" xml:space="preserve" xmlns="http://www.w3.org/2000/svg" xmlns:cc="http://creativecommons.org/ns#" xmlns:dc="http://purl.org/dc/elements/1.1/" xmlns:rdf="http://www.w3.org/1999/02/22-rdf-syntax-ns#"><metadata><rdf:RDF><cc:Work rdf:about=""><dc:format>image/svg+xml</dc:format><dc:type rdf:resource="http://purl.org/dc/dcmitype/StillImage"/><dc:title/></cc:Work></rdf:RDF></metadata><defs><clipPath id="a"><path d="m0 1e3h1e3v-1e3h-1e3z"/></clipPath></defs><g transform="matrix(1.3333 0 0 -1.3333 0 1333.3)"><g transform="matrix(.91378 0 0 1 43.105 -4.2373)"><g clip-path="url(#a)"><g transform="translate(991.36 502.74)"><path d="m0 0c0-187.22-120.88-321.73-294.2-388.52-12.543-4.833-76.511-26.655-124.54-1.406-7.806 4.106-33.736-9.296-34.221-9.452-3.039-0.97 84.197-41.007 81.134-42.952-11.724-7.438-23.619-19.509-35.424-16.796-6.724 1.544-12.638 11.409-16.464 13.089-21.745 9.559-40.718 33.562-63.606 36.576-1.666 0.218-74.271-50.765-75.931-50.527-14.319 2.019-28.436 11.014-42.324 14.146-1.414 0.318 87.466 45.451 86.056 45.782-2.661 0.625-16.225 10.458-31.233 7.02-19.619-4.488-41.71-22.572-45.162-21.666-206.81 54.24-386.95 199.96-386.95 408.3 0 253.41 221.47 458.84 494.66 458.84 273.19 0 488.21-199.03 488.21-452.44" fill="#fff"/></g><g transform="translate(874.23 523.74)"><path d="m0 0c0.958-188.06-165.7-341.28-372.35-342.18-206.54-0.868-374.91 150.86-375.92 338.97-0.906 188.1 165.76 341.33 372.33 342.22 206.57 0.9 374.93-150.91 375.94-339.01" fill="#fff799"/></g><g transform="translate(874.23 523.74)"><path d="m0 0c0.958-188.06-165.7-341.28-372.35-342.18-206.54-0.868-374.91 150.86-375.92 338.97-0.906 188.1 165.76 341.33 372.33 342.22 206.57 0.9 374.93-150.91 375.94-339.01z" fill="none" stroke="#231f20" stroke-width=".5"/></g><g transform="translate(764.87 523.32)"><path d="m0 0c0.743-133.18-117.28-241.66-263.56-242.3-146.23-0.581-265.31 106.79-266 239.92-0.746 133.24 117.3 241.69 263.48 242.3 146.31 0.656 265.39-106.77 266.08-239.92" fill="#6dcff6"/></g><g transform="translate(764.87 523.32)"><path d="m0 0c0.743-133.18-117.28-241.66-263.56-242.3-146.23-0.581-265.31 106.79-266 239.92-0.746 133.24 117.3 241.69 263.48 242.3 146.31 0.656 265.39-106.77 266.08-239.92z" fill="none" stroke="#231f20" stroke-width=".5"/></g><g transform="translate(674.02 522.9)"><path d="m0 0c0.507-87.465-76.948-158.75-173.1-159.14-96.064-0.475-174.29 70.155-174.8 157.61-0.454 87.483 77.059 158.77 173.15 159.2 96.121 0.419 174.32-70.124 174.75-157.66" fill="#b9e5fb"/></g><g transform="translate(674.02 522.9)"><path d="m0 0c0.507-87.465-76.948-158.75-173.1-159.14-96.064-0.475-174.29 70.155-174.8 157.61-0.454 87.483 77.059 158.77 173.15 159.2 96.121 0.419 174.32-70.124 174.75-157.66z" fill="none" stroke="#231f20" stroke-width=".719"/></g><g transform="translate(967.29 497.1)"><path d="m0 0s-14.272 12.927 4.973 29.704c0 0 13.689-15.702-4.973-29.704m-1.086-36.462s-13.771 18.783 6.962 29.704c0 0 11.935-18.816-6.962-29.704m-9.306-39.019s-10.899 20.653 11.749 28.779c0 0 10.953-19.103-11.749-28.779m-14.461-40.239s-7.151 17.622 17.89 25.167c0 0 5.13-20.154-17.89-25.167m-21.476-42.106s-1.09 20.053 21.265 23.266c0 0 2.498-21.947-21.265-23.266m-19.513-31.599s-4.121 15.427 25.389 19.54c0 0-1.943-21.947-25.389-19.54m-23.123-31.556s-0.585 20.097 24.906 16.729c0 0 0.557-18.898-24.906-16.729m-26.214-29.867s2.447 20.097 26.214 15.984c0 0-0.692-21.66-26.214-15.984m2.343 40.631s13.983 12.052 11.004-1.112c0 0-0.772-12.346-12.228-10.551 0 0-8.931 4.269 1.224 11.663m4.441 39.02s11.561-17.36-7.848-30.949c0 0-10.256 16.566 7.848 30.949m-42.667-113.79s1.596 18.515 30.036 15.984c0 0 0.107-20.897-30.036-15.984m-33.359-28.336s5.369 21.241 32.987 12.877c0 0-2.872-19.315-32.987-12.877m-38.517-19.472s9.221 20.473 36.893 9.027c0 0-12.198-20.948-36.893-9.027m-34.744-16.04s10.074 19.365 32.244 6.382c0 0-7.602-17.859-32.244-6.382m-53.295-25.279s11.749 28.605 43.593 9.395c0 0-4.944-12.764-43.593-9.395m-57.364 2.381s33.494 14.109 45.511-14.833c0 0-38.599-7.489-45.511 14.833m32.43 43.476s-2.741-31.736-37.082-31.873c0 0 1.519 26.648 37.082 31.873m37.452-15.352s-7.891-27.442-46.147-17.578c0 0 5.929 17.784 46.147 17.578m5.744 31.342s0.186-23.591-31.233-22.165c0 0-3.936 20.053 31.233 22.165m26.449-11.876c19.084 5.488 13.661-7.258 13.661-7.258-10.15-14.739-30.994-18.278-30.994-18.278l-5.154 18.866c8.93 0.868 22.487 6.67 22.487 6.67m21.052 33.693s-1.115-30.524-36.416-28.754c0 0 4.997 26.716 36.416 28.754m31.897-21.078s-5.397-13.172-22.409-12.902l-2.579 12.37s9.652 6.62 24.988 0.532m-0.157 41.338s6.43-21.636-22.781-32.931c0 0-3.908 22.404 22.781 32.931m29.771-16.878c2.655-15.815-13.078-18.21-13.078-18.21l-11.059 9.577c5.822 12.452 24.137 8.633 24.137 8.633m-1.064 38.243s9.46-27.773-15.55-28.648c0 0-2.208 16.965 15.55 28.648m27.221-16.883s5.58-8.833-6.673-15.853l-9.356 8.814s-0.056 7.751 16.029 7.039m1.115 40.975s11.959-18.891-11.721-32.105c0 0-5.663 20.815 11.721 32.105m13.635-17.728s5.902 8.152 14.011 6.251c0 0 6.376-13.484-6.327-21.291 0 0-12.282 3.801-7.684 15.04m11.642 40.6s9.917-20.391-10.391-28.198c0 0-6.541 17.334 10.391 28.198m45.164 60.492s12.333-13.821-6.247-28.593c0 0-7.734 20.785 6.247 28.593m8.56-36.063s3.455-11.764-8.799-10.313c0 0-8.08 5.013-0.053 8.919 0 0 7.095 6.014 8.852 1.394m9.088 73.9s14.675-16.303-3.24-33.399c0 0-13.614 14.114 3.24 33.399m13.403 34.925s16.372-11.94-0.164-34.263c0 0-14.353 18.754 0.164 34.263m-7.13 199.41c21.799-7.676 14.704-25.885 14.704-25.885-19.062 9.789-14.704 25.885-14.704 25.885m-12.039 25.592c20.044-1.425 18.794-20.578 18.794-20.578-20.044 4.513-18.794 20.578-18.794 20.578m-10.659 29.655c21.824-3.325 17.676-19.366 17.676-19.366-17.623 2.319-17.676 19.366-17.676 19.366m-19.166 29.892c23.313-1.087 20.759-18.79 20.759-18.79-20.041 2.088-20.759 18.79-20.759 18.79m-19.829 24.029c20.333 3.488 24.163-16.246 24.163-16.246-17.015 0.813-24.163 16.246-24.163 16.246m-24.589 27.705c23.02 1.95 26.21-18.415 26.21-18.415-22.065-1.082-26.21 18.415-26.21 18.415m-23.549 25.273c25.889 1.95 28.283-18.228 28.283-18.228-25.147-1.007-28.283 18.228-28.283 18.228m-23.87 23.379c22.699 2.819 25.835-15.672 25.835-15.672-22.063-0.4-25.835 15.672-25.835 15.672m-27.25 17.728c24.777 4.488 27.515-10.659 27.515-10.659-25.411-4.113-27.515 10.659-27.515 10.659m-1.7 20.784c18.397 0.581 17.358-6.438 17.358-6.438-8.027 2.3-4.84-6.163-4.84-6.163-14.433 2-12.518 12.601-12.518 12.601m-29.321-7.488c17.629 7.488 24.856-8.314 24.856-8.314-24.164-3.801-24.856 8.314-24.856 8.314m-25.146 11.239c22.702 8.782 25.838-5.758 25.838-5.758-24.134-3.162-25.838 5.758-25.838 5.758m-1.14 22.891s19.348 0.087 9.567-4.557c0 0-1.729-2.769-1.089-7.151 0 0-25.414 10.027-8.478 11.708m-34.53-10.939c24.028 5.988 26.104-6.726 26.104-6.726-24.774-2.563-26.104 6.726-26.104 6.726m-4.944 26.516s33.998 1.707 14.993-9.789c0 0 5.155-15.145-10.477-6.832 0 0-21.156 18.122-4.516 16.621m45.187-6.919s-23.977-4.169-25.146 19.396c0 0 24.642 2.245 25.146-19.396m31.633-10.339c-21.32-3.138-25.571 19.365-25.571 19.365 22.062 3.508 25.571-19.365 25.571-19.365m5.183-15.459s-3.747-0.35-1.968-5.594c0 0-4.677 0.368-8.131 2.431-2.847 1.976-5.348 5.057-3.222 9.364 0 0 20.63 1.319 13.321-6.201m27.829-1.713c-21.77-1.006-22.431 20.335-22.431 20.335 25.731-1.763 22.431-20.335 22.431-20.335m30.253-18.921s-21.427-1.37-22.491 23.247c0 0 22.595-2.138 22.491-23.247m2.526-12.528c-5.398 1.663-5.398-4.994-5.398-4.994-9.914-1-8.185 12.852-8.185 12.852 15.258-0.581 13.583-7.858 13.583-7.858m10.924 12.421c22.299-0.394 20.705-22.31 20.705-22.31-22.645 2.025-20.705 22.31-20.705 22.31m16.297-35.406s-1.569-14.771-9.917-0.894c0 0-5.395 8.02-2.205 11.902 0 0 11.215 0.813 16.612-8.176 0 0 3.243-6.182-4.49-2.832m22.194-15.933s16.801-10.446 4.466-10.89c0 0-6.062-13.646-12.282 5.563 0 0-2.979 11.421 7.816 5.327m-5.583 29.342c19.669-2.725 17.115-25.936 17.115-25.936-21.741 2.344-17.115 25.936-17.115 25.936m27.829-59.629c1.385-1 16.935-12.577 1.385-10.183 0 0-4.015-11.133-9.17 0.319 0 0-6.115 21.523 7.785 9.864m-1.622 32.237c21.852-8.383 12.707-27.323 12.707-27.323-18.98 6.063-12.707 27.323-12.707 27.323m23.819-59.36s16.694-13.446 2.047-12.339c0 0-6.726-7.471-9.17 3.694 0 0-5.797 16.59 7.123 8.645m0.158 31.842c21.798-8.276 12.761-28.673 12.761-28.673-20.099 3.3-12.761 28.673-12.761 28.673m25.571-75.899c-3.48 3.35-7.441-0.687-7.441-0.687-9.835-10.522-6.938 14.251-6.938 14.251 6.459 4.957 14.379-13.564 14.379-13.564m-5.076 45.726s20.44-9.845 9.012-29.63c0 0-21.051 10.127-9.012 29.63m17.89-33.012c21.133-11.952 8.61-28.385 8.61-28.385-18.71 8.626-8.61 28.385-8.61 28.385m23.045-63.842s-21.423 8.865-4.916 29.336c0 0 17.147-10.739 4.916-29.336m3.325-111.92c-16.907-6.858-10.632 14.171-10.632 14.171 7.414 13.296 13.983-1.769 13.983-1.769 7.252-17.59-3.351-12.402-3.351-12.402m-6.248-37.462s-7.177 0.95-2.154 12.67c0 0 8.349 21.998 12.282 1.632 0 0 5.425-12.058-1.7-14.803 0 0-5.052 8.258-8.428 0.501m1.143-30.549-9.17-0.425c-1.09 12.089 11.828 19.209 11.828 19.209 4.787-3.901 3.509-17.253 3.509-17.253-2.023-10.189-6.167-1.531-6.167-1.531m-26.502 10.339s20.815-16.834 3.882-36.037c0 0-17.065 15.884-3.882 36.037m8.269 103.06c-19.673 6.432-13.399 24.004-13.399 24.004 20.151-6.751 13.399-24.004 13.399-24.004m3.905-35.275c-16.347 9.839-7.973 26.836-7.973 26.836 17.732-12.247 7.973-26.836 7.973-26.836m-0.662-63.979c-14.299 7.013-9.302 26.836-9.302 26.836 17.645-5.145 9.302-26.836 9.302-26.836m1.009 30.186s-13.983 7.695-8.374 26.536c0 0 16.507-8.471 8.374-26.536m18.45 71.574s9.327-22.454-4.654-13.64c0 0-14.143-4.619-7.842 12.077 0 0 4.573 19.766 12.496 1.563m-2.132 19.203s-5.048-3.744-7.76 2.063c0 0-10.923-7.676-8.905 5.614 0 0 4.705 21.322 11.192 10.533 0 0 9.888-12.902 5.473-18.21m-25.832 66.042-2.607-2.481s-8.534-5.626-7.178 7.676c0 0 0.611 18.89 9.439 5.932 0 0 17.7-16.089 0.346-11.127m0.793-22.854s0.294 15.984 11.275 3.695c0 0 8.24-16.041-0.268-11.108 0 0-3.509 1.819-5.473-2.826 0 0-8.135-0.287-5.534 10.239m-16-296.27-7.523 4.269s-5.82 5.338 1.622 10.608c0 0 13.531 15.828 14.885 1.588 0 0 4.201-14.877-8.984-16.465m17.012 34.981-0.611 2.8-9.167-0.662c-3.115 7.101 9.113 18.572 9.113 18.572 12.496 11.845 8.802-7.965 8.802-7.965 0.794-18.546-8.137-12.745-8.137-12.745m5.344 39.05s-4.759 12.289 10.659 24.166c0 0 5.395-1.212 5.845-17.34 0 0 1.118-14.165-6.749-9.258 0 0 1.115 4.857-9.755 2.432m28.679 222.04s14.649-10.695-0.158-29.023c0 0-14.779 17.778 0.158 29.023m10.105-37.043s15.576-12.296-2.022-28.755c0 0-16.64 15.903 2.022 28.755m-0.054-65.592s-13.985 23.166 5.262 29.398c0 0 14.301-15.04-5.262-29.398m15.894-64.442c12.228 19.778 0.85 37.375 0.85 37.375 5.373 22.559 2.554 39.844 2.554 39.844 1.858 27.217-4.308 33.424-4.308 33.424 4.519 34.906-10.392 37.65-10.392 37.65 1.171 33.974-11.003 37.675-11.003 37.675-4.919 22.241-15.075 32.386-15.075 32.386-3.215 29.087-18.182 37.025-18.182 37.025-2.151 23.211-20.574 27.699-20.574 27.699-9.249 28.148-24.614 32.686-24.614 32.686-8.454 16.678-26.316 25.911-26.316 25.911-13.396 23.772-27.565 25.404-27.565 25.404-8.983 16.647-35.804 23.716-35.804 23.716-15.368 18.203-37.428 20.873-37.428 20.873-14.039 15.752-34.397 17.121-34.397 17.121-13.289 12.346-29.93 8.864-29.93 8.864-24.852 20.916-54.123 21.054-54.123 21.054-10.842 1.162-8.106-2.744-3.351-3.695 4.68-0.9 13.957-3.006 13.957-3.006 16.322-6.12 10.659-19.816 10.659-19.816-16.318 1.8-58.45 2.619-58.45 2.619-15.286-2.226 12.411-5.019 12.411-5.019 25.467-5.063 30.647-26.168 30.647-26.168-9.06-3.644-26.525 0.895-26.525 0.895-22.173 6.594-4.573-5.645 2.286-7.151 6.724-1.557 10.71-3.089 22.035-5.095 11.298-2.001 22.648-5.063 22.648-5.063 17.65-13.265 32.376-11.184 32.376-11.184 10.739-9.182 26.581-10.663 26.581-10.663 12.521-11.81 30.118-17.879 30.118-17.879 11.407-13.383 27.3-20.028 27.3-20.028 7.977-18.972 22.195-26.673 22.195-26.673 9.12-12.902 20.973-20.498 20.973-20.498 9.117-7.676 15.975-16.965 15.975-16.965 11.432-24.647 17.175-26.698 17.175-26.698 6.724-5.063 12.464-14.377 12.464-14.377l10.289-19.072c1.779-14.678 8.584-26.229 8.584-26.229 6.938-27.811 9.517-31.606 9.517-31.606 2.658-20.128 8.746-32.48 8.746-32.48 0-8.464 2.525-16.197 2.525-16.197 0.107-15.433 0.239-46.357 0.239-46.357-5.026-18.566-0.665-24.717-0.665-24.717-0.825-6.988-3.111-47.145-3.111-52.577 0.082-5.389-9.249-27.336-9.249-27.336-9.223-10.82-12.893-35.724-12.893-35.724-10.155-8.177-16.904-29.437-16.904-29.437-12.178-13.252-23.126-30.661-23.126-30.661-10.582-12.37-29.136-33.268-29.136-33.268-17.701-18.553-31.683-28.805-31.683-28.805-9.731-6.257-56.196-40.025-56.196-40.025-16.107-5.12-76.659-32.406-76.659-32.406-44.978 1.72-73.154-52.921-73.154-52.921-115.26-22.103-171.93-71.811-171.93-71.811 4.148-9.552 12.547-10.765 12.547-10.765 11.195-3.638 14.25 2.907 14.25 2.907l9.409 7.439c59.887 47.251 140.99 61.76 140.99 61.76 28.546-23.929 78.122-16.622 78.122-16.622 3.752 3.138 2.712 11.109 2.712 11.109 44.018-3.164 55.453 20.34 55.453 20.34 30.272 3.514 45.797 17.203 45.797 17.203 31.207 7.258 40.938 24.635 40.938 24.635 30.459 15.253 33.12 29.737 33.12 29.737 26.581 10.633 33.172 33.324 33.172 33.324 27.753 14.215 30.676 33.843 30.676 33.843 18.608 9.977 22.913 31.899 22.913 31.899 17.864 13.69 20.522 36.881 20.522 36.881 14.197 13.008 14.754 38.388 14.754 38.388 15.789 20.741 15.043 46.432 15.043 46.432 16.744 30.975 9.224 40.876 9.224 40.876" fill="#008a4b"/></g><g transform="translate(34.94 522.74)"><path d="m0 0c19.512-16.622 5.266-29.598 5.266-29.598-18.716 13.821-5.266 29.598-5.266 29.598m-0.478-36.493c20.84-10.727 7.312-29.599 7.312-29.599-19.062 10.74-7.312 29.599-7.312 29.599m4.944-39.832c22.727-8.001 12.016-28.711 12.016-28.711-22.755 9.476-12.016 28.711-12.016 28.711m8.773-43.876c25.092-7.232 18.18-24.979 18.18-24.979-23.178 4.882-18.18 24.979-18.18 24.979m18.498-43.77c22.44-2.975 21.533-23.116 21.533-23.116-23.737 1.088-21.533 23.116-21.533 23.116m15.846-35.168c29.476-3.932 25.52-19.447 25.52-19.447-23.394-2.5-25.52 19.447-25.52 19.447m23.921-34.193c25.466 3.588 25.173-16.509 25.173-16.509-25.492-2.407-25.173 16.509-25.173 16.509m25.173-30.393c23.767 4.333 26.396-15.771 26.396-15.771-25.384-5.889-26.396 15.771-26.396 15.771m24.96 13.196c-11.428-1.956-12.306 10.421-12.306 10.421-3.001 13.083 10.981 1.137 10.981 1.137 10.259-7.232 1.325-11.558 1.325-11.558m2.019 19.71c-19.562 13.527-8.184 30.943-8.184 30.943 18.34-14.247 8.184-30.943 8.184-30.943m5.504-66.774c28.415 2.844 30.197-15.702 30.197-15.702-30.168-5.17-30.197 15.702-30.197 15.702m30.704-31.167c27.483 8.608 33.148-12.577 33.148-12.577-30.115-6.757-33.148 12.577-33.148 12.577m34.902-23.079c27.51 11.714 36.973-8.702 36.973-8.702-24.56-12.058-36.973 8.702-36.973 8.702m39.581-18.365c21.984 13.245 32.269-6.014 32.269-6.014-24.563-11.715-32.269 6.014-32.269 6.014m42.157-21.817c31.683 19.472 43.753-9.101 43.753-9.101-38.702-3.644-43.753 9.101-43.753 9.101m55.714-21.397c11.699 29.049 45.243 15.309 45.243 15.309-6.697-22.454-45.243-15.309-45.243-15.309m49.869 26.861c-34.341-0.106-37.534 31.555-37.534 31.555 35.673-4.913 37.534-31.555 37.534-31.555m-28.446-1.269c-38.142-10.239-46.329 17.153-46.329 17.153 40.324 0.575 46.329-17.153 46.329-17.153m-20.944 26.566c-31.365-1.718-31.444 21.904-31.444 21.904 35.166-1.775 31.444-21.904 31.444-21.904m-35.248 3.301-4.998-18.946s-20.734 3.438-31.019 18.053c0 0-5.605 12.764 13.479 7.382 0 0 13.635-5.751 22.538-6.489m-7.227 11.584c-35.248-2.063-36.631 28.435-36.631 28.435 31.419-1.819 36.631-28.435 36.631-28.435m-43.382 6.725-2.447-12.345c-16.962-0.482-22.516 12.714-22.516 12.714 15.206 6.17 24.963-0.369 24.963-0.369m-2.101 8.915c-29.372 11.089-23.073 32.743-23.073 32.743 26.767-10.289 23.073-32.743 23.073-32.743m-28.471 7.176-11.003-9.658s-15.683 2.219-13.239 18.103c0 0 18.183 3.957 24.242-8.445m-7.763 18.153c-25.038 0.687-15.865 28.574-15.865 28.574 17.915-11.534 15.865-28.574 15.865-28.574m-26.739 4.563-9.277-8.945c-12.36 6.913-6.884 15.783-6.884 15.783 16.108 0.894 16.161-6.838 16.161-6.838m-5.58 15.803c-23.898 13.089-12.07 31.999-12.07 31.999 17.436-11.102 12.07-31.999 12.07-31.999m-33.122-0.895c-12.707 7.652-6.512 21.185-6.512 21.185 8.106 2.031 14.06-6.095 14.06-6.095 4.758-11.188-7.548-15.09-7.548-15.09m6.22 27.436c-20.391 7.651-10.685 28.206-10.685 28.206 16.957-10.791 10.685-28.206 10.685-28.206m-49.999 59.704c-18.715 14.565-6.487 28.573-6.487 28.573 14.035-7.676 6.487-28.573 6.487-28.573m-5.876-8.97c8.08-3.795 0.054-8.864 0.054-8.864-12.203-1.607-8.828 10.208-8.828 10.208 1.597 4.644 8.774-1.344 8.774-1.344m-15.047 41.819c-18.126 16.909-3.615 33.349-3.615 33.349 17.065-19.134 3.615-33.349 3.615-33.349m-16.929 33.874c-16.776 22.217-0.45 34.3-0.45 34.3 14.722-15.383 0.45-34.3 0.45-34.3m-9.81 207.71s-7.362 18.203 14.408 25.985c0 0 4.465-15.984-14.408-25.985m7.603 30.968s-1.49 19.184 18.551 20.765c0 0 1.385-16.04-18.551-20.765m11.378 30.954s-4.173 16.066 17.597 19.523c0 0 0.05-16.99-17.597-19.523m15.735 30.655s-2.683 17.672 20.652 18.941c0 0-0.557-16.728-20.652-18.941m16.212 26.698s3.618 19.76 24.03 16.516c0 0-7.041-15.515-24.03-16.516m22.223 25.749s2.979 20.347 26.106 18.627c0 0-4.015-19.528-26.106-18.627m21.322 25.673s2.23 20.209 28.015 18.384c0 0-2.872-19.21-28.015-18.384m25.997 26.173s2.947 18.515 25.702 15.797c0 0-3.589-16.041-25.702-15.797m25.302 22.947s2.608 15.096 27.407 10.92c0 0-1.861-14.852-27.407-10.92m16.536 18.916s3.109 8.526-4.837 6.176c0 0-1.222 6.994 17.223 6.538 0 0 2.072-10.551-12.386-12.714m17.066-3.007s7.019 15.784 24.745 8.445c0 0-0.585-12.083-24.745-8.445m23.977 14.034s2.979 14.515 25.728 5.969c0 0-1.54-8.97-25.728-5.969m18.34 17.072c0.586 4.35-1.118 7.151-1.118 7.151-9.913 4.481 9.491 4.587 9.491 4.587 16.958-1.481-8.373-11.738-8.373-11.738m16.958-5.827s1.915 12.764 25.998 6.907c0 0-1.224-9.289-25.998-6.907m26.317 16.828c-15.446-8.42-10.528 6.757-10.528 6.757-19.004 11.34 14.912 9.946 14.912 9.946 16.614 1.632-4.384-16.703-4.384-16.703m-15.736 28.974c-0.904-23.592-25.039-19.579-25.039-19.579 0.319 21.61 25.039 19.579 25.039 19.579m-31.101-10.639s-4.097-22.555-25.41-19.572c0 0 3.294 22.922 25.41 19.572m-17.278-28.805c2.231-4.22-0.212-7.339-3.055-9.389-3.483-2.07-8.002-2.407-8.002-2.407 1.596 5.226-2.073 5.595-2.073 5.595-7.444 7.332 13.13 6.201 13.13 6.201m-18.716 12.321s-0.504-21.429-22.274-20.579c0 0-3.508 18.572 22.274 20.579m-30.143-16.254c-0.687-24.697-22.22-23.453-22.22-23.453-0.372 21.128 22.22 23.453 22.22 23.453m-11.056-28.016s1.807-13.828-8.135-12.984c0 0-0.053 6.676-5.394 5.045 0 0-1.783 7.245 13.529 7.939m-45.029-18.228s-1.808 21.947 20.519 22.604c0 0 2.075-20.342-20.519-22.604m-0.054-10.221c5.372 9.083 16.64 8.345 16.64 8.345 3.136-3.857-2.205-11.927-2.205-11.927-8.165-13.983-9.916 0.738-9.916 0.738-7.573-3.32-4.519 2.844-4.519 2.844m-9.624-24.16c-5.952-19.203-12.175-5.645-12.175-5.645-12.277 0.263 4.334 10.814 4.334 10.814 10.795 6.283 7.841-5.169 7.841-5.169m-19.401 8.495s-2.819 23.266 16.904 26.091c0 0 4.837-23.478-16.904-26.091m-2.422-43.526c-4.998-11.427-9.196-0.375-9.196-0.375-15.603-2.531-0.107 9.232 1.304 10.158 13.793 11.846 7.892-9.783 7.892-9.783m-18.952 14.609s-9.463 18.89 12.332 27.492c0 0 6.488-21.266-12.332-27.492m-3.722-40.682c-2.336-11.102-9.116-3.775-9.116-3.775-14.597-1.313 1.886 12.377 1.886 12.377 12.867 8.069 7.23-8.602 7.23-8.602m-20.094 11.608s-9.277 20.316 12.414 28.842c0 0 7.627-25.36-12.414-28.842m1.858-33.661s3.165-24.767-6.67-14.247c0 0-4.122 4.007-7.523 0.581 0 0 7.738 18.566 14.193 13.666m-18.258 2.45c-11.593 19.66 8.583 29.686 8.583 29.686 12.333-19.472-8.583-29.686-8.583-29.686m-17.201-31.943s-12.703 16.277 8.348 28.436c0 0 10.26-19.628-8.348-28.436m-9.492-6.232c16.779-20.26-4.597-29.386-4.597-29.386-12.332 18.515 4.597 29.386 4.597 29.386m-10.234-128.96s6.541 15.09 13.986 1.875c0 0 6.539-20.971-10.475-14.271 0 0-10.499-5.282-3.511 12.396m1.704-50.315c-7.149 2.67-1.755 14.753-1.755 14.753 3.616 20.441 12.125-1.482 12.125-1.482 5.18-11.739-1.89-12.683-1.89-12.683-3.429 7.676-8.48-0.588-8.48-0.588m1.464-28.486s-1.464 13.303 3.319 17.31c0 0 12.975-7.102 11.963-19.129l-9.144 0.313s-4.069-8.683-6.138 1.506m28.947-27.091c-17.012 19.097 3.665 36.193 3.665 36.193 13.346-20.078-3.665-36.193-3.665-36.193m7.365 163.25s6.513-17.572-13.138-24.167c0 0-6.88 17.253 13.138 24.167m-9.016-32.475s8.614-16.965-7.627-26.973c0 0-9.97 14.491 7.627 26.973m2.768-63.979s5.181-19.866-9.144-26.967c0 0-8.535 21.585 9.144 26.967m-2.289 29.837c5.744-18.785-8.106-26.618-8.106-26.618-8.319 18.015 8.106 26.618 8.106 26.618m-14.778 43.319c6.54-16.621-7.76-12.058-7.76-12.058-13.825-9.02-4.787 13.583-4.787 13.583 7.763 18.234 12.547-1.525 12.547-1.525m-5.263 38.943c6.352 10.79 11.271-10.476 11.271-10.476 2.154-13.239-8.853-5.626-8.853-5.626-2.686-5.851-7.787-2.15-7.787-2.15-4.412 5.195 5.369 18.252 5.369 18.252m20.041 59.174c8.72 12.976 9.57-5.883 9.57-5.883 1.436-13.296-7.177-7.758-7.177-7.758l-2.657 2.482c-17.277-5.063 0.264 11.159 0.264 11.159m-6.22-44.321c-2.018 4.639-5.472 2.8-5.472 2.8-8.51-4.994-0.375 11.127-0.375 11.127 10.845 12.396 11.217-3.613 11.217-3.613 2.815-10.501-5.37-10.314-5.37-10.314m15.315-269.45c1.247 14.277 14.961-1.476 14.961-1.476 7.473-5.194 1.757-10.526 1.757-10.526l-7.47-4.377c-13.235 1.501-9.248 16.379-9.248 16.379m-16.401 31.161s-3.911 19.71 8.714 8.077c0 0 12.36-11.421 9.334-18.553l-9.281 0.612-0.557-2.744s-8.849-5.996-8.21 12.608m-7.312 23.798c-7.734-4.963-6.859 9.182-6.859 9.182 0.319 16.122 5.687 17.304 5.687 17.304 15.683-11.609 11.007-24.005 11.007-24.005-10.875 2.426-9.835-2.481-9.835-2.481m-20.681 195.31c-15.099 18.127-0.478 28.973-0.478 28.973 15.018-11.114 0.478-28.973 0.478-28.973m-7.922-36.825c-17.812 16.228-2.233 28.673-2.233 28.673 18.74-12.639 2.233-28.673 2.233-28.673m-7.177-7.52c19.404-6.07 5.636-29.337 5.636-29.337-19.751 14.141-5.636 29.337-5.636 29.337m0.107-134.79s-0.532-25.642 15.496-46.302c0 0 0.797-25.435 15.098-38.305 0 0 2.925-23.11 20.922-36.619 0 0 4.519-21.872 23.231-31.718 0 0 3.165-19.516 31.075-33.63 0 0 6.91-22.535 33.466-32.9 0 0 2.815-14.484 33.44-29.549 0 0 9.913-17.227 41.2-24.191 0 0 15.685-13.589 45.961-16.834 0 0 11.617-23.51 55.742-19.866 0 0-0.932-8.026 2.819-11.082 0 0 49.598-6.908 77.99 17.327 0 0 81.124-13.84 141.46-60.597l9.546-7.439s3.086-6.488 14.275-2.657c0 0 8.426 1.282 12.438 10.833 0 0-57.147 49.29-172.67 70.337 0 0-28.735 54.403-73.685 52.24 0 0-60.897 26.835-76.983 31.736 0 0-46.891 33.43-56.643 39.607 0 0-14.011 10.077-31.979 28.517 0 0-18.82 20.653-29.454 33.005 0 0-11.109 17.36-23.495 30.443 0 0-6.913 21.21-17.147 29.286 0 0-3.987 24.823-13.318 35.612 0 0-9.491 21.879-9.491 27.255-0.026 5.381-2.841 45.638-3.694 52.527 0 0 4.201 6.176-1.008 24.748 0 0-0.107 30.923-0.211 46.383 0 0 2.522 7.701 2.494 16.246 0 0 5.848 12.353 8.295 32.512 0 0 2.526 3.8 9.17 31.705 0 0 6.727 11.583 8.374 26.285l10.048 19.122s5.638 9.364 12.44 14.54c0 0 5.636 2.057 16.85 26.774 0 0 6.676 9.345 15.714 17.127 0 0 11.775 7.777 20.813 20.654 0 0 14.06 7.864 21.959 26.942 0 0 15.736 6.751 27.003 20.177 0 0 17.597 6.258 29.882 18.179 0 0 15.84 1.612 26.553 10.902 0 0 14.697-1.957 32.244 11.502 0 0 11.324 3.113 22.62 5.194 11.243 2.107 15.229 3.745 22.012 5.251 6.802 1.656 24.267 14.033 2.201 7.251 0 0-17.489-4.726-26.606-1.162 0 0 5.026 21.141 30.436 26.436 0 0 27.696 3.088 12.388 5.119 0 0-42.157-1.107-58.428-3.057 0 0-5.848 13.59 10.42 19.84 0 0 9.171 2.189 13.932 3.164 4.729 0.95 7.492 4.907-3.458 3.638 0 0-29.239-0.362-53.827-21.528 0 0-16.641 3.325-29.851-9.071 0 0-20.443-1.638-34.237-17.471 0 0-22.012-2.82-37.216-21.204 0 0-26.768-7.289-35.567-23.96 0 0-14.142-1.794-27.274-25.673 0 0-17.676-9.414-26.048-26.142 0 0-15.312-4.651-24.296-32.874 0 0-18.29-4.751-20.255-27.942 0 0-14.886-8.045-17.755-37.144 0 0-10.102-10.258-14.726-32.505 0 0-12.173-3.801-10.637-37.807 0 0-14.883-2.787-10.046-37.781 0 0-6.03-6.17-3.882-33.342 0 0-2.655-17.366 2.872-39.92 0 0-11.164-17.54 1.196-37.331 0 0-7.337-9.97 9.81-40.813" fill="#008a4b"/></g><g transform="translate(839.99 527.33)"><path d="m0 0c0.107-12.564-11.081-22.766-24.881-22.79-13.818-0.082-25.01 10.019-25.117 22.603 0 12.589 11.085 22.772 24.827 22.822 13.851 0.056 25.118-10.02 25.171-22.635" fill="#231f20"/></g><g transform="translate(308.79 527.33)"><path d="m0 0c0.054-12.564-11.113-22.766-24.881-22.79-13.849-0.082-25.038 10.019-25.092 22.603-0.11 12.589 11.006 22.772 24.825 22.822 13.825 0.056 25.013-10.02 25.148-22.635" fill="#231f20"/></g><g transform="translate(468.81 574.21)"><path d="m0 0-63.319 45.302" fill="none" stroke="#ec008c" stroke-width=".144"/></g><g transform="translate(473.54 581.68)"><path d="m0 0-21.902 19.791" fill="none" stroke="#ec008c" stroke-width=".144"/></g><g transform="translate(480 588.75)"><path d="m0 0-33.28 46.595" fill="none" stroke="#ec008c" stroke-width=".144"/></g><g transform="translate(485.82 593.05)"><path d="m0 0-10.688 23.529" fill="none" stroke="#ec008c" stroke-width=".144"/></g><g transform="translate(479.65 640.82)"><path d="m0 0 10.87-43.975" fill="none" stroke="#ec008c" stroke-width=".144"/></g><g transform="translate(496.85 622.1)"><path d="m0 0 0.721-24.166" fill="none" stroke="#ec008c" stroke-width=".144"/></g><g transform="translate(506.77 647.93)"><path d="m0 0-0.346-50.472" fill="none" stroke="#ec008c" stroke-width=".144"/></g><g transform="translate(524.57 622.2)"><path d="m0 0-6.963-25.223" fill="none" stroke="#ec008c" stroke-width=".144"/></g><g transform="translate(547.43 644.81)"><path d="m0 0-21.53-51.577" fill="none" stroke="#ec008c" stroke-width=".144"/></g><g transform="translate(551.69 616.4)"><path d="m0 0-19.88-26.392" fill="none" stroke="#ec008c" stroke-width=".144"/></g><g transform="translate(568.81 615.98)"><path d="m0 0-31.047-31.293" fill="none" stroke="#ec008c" stroke-width=".144"/></g><g transform="translate(609.53 613.44)"><path d="m0 0-64.066-36.775" fill="none" stroke="#ec008c" stroke-width=".144"/></g><g transform="translate(550.46 560.04)"><path d="m0 0c0.11-22.31-19.666-40.52-44.254-40.625-24.592-0.107-44.526 17.971-44.658 40.262-0.161 22.416 19.748 40.576 44.257 40.732 24.588 0.056 44.551-17.941 44.655-40.369" fill="#ed1c24"/></g><g transform="translate(582.41 493.14)"><path d="m0 0-12.224 84.152h-8.189l-35.326-18.942-19.405-10.814-54.945 25.536-11.189-5.958-5.53-75.669 32.032-21.897 37.796-10.601 33.497 8.226z" fill="#fff"/></g><g transform="translate(592.63 451.4)"><path d="m0 0-13.929 2.169s-12.92 4.014-16.35-4.226c0 0-5.183-4.794 4.915-11.082l12.55-9.764s5.634-4.37 3.215-7.54c0 0-3.086-2.243-10.445 3.114l-29.296 15.99s-8.399 4.114 1.356 10.183l24.91 17.541s6.591 0.612 10.5-3.139l16.321-9.501s5.606-5.27-3.747-3.745m-77.516 13.621-4.837 81.414 52.339 29.498 11.645-77.413-59.147-33.499m-70.36 27.593 2.951 78.037 55.342-24.478 4.626-80.889-62.919 27.33m34.209-55.51-36.841-17.915c-6.752-2.826 2.074 6.569 2.074 6.569 5.953 4.22 8.025 9.289 8.025 9.289 5.904 14.296-28.068 11.871-28.068 11.871l13.528 9.683c9.756 7.045 18.687 2.032 18.687 2.032l17.918-10.765c8.824-4.563 4.677-10.764 4.677-10.764m121.69 22.11-18.315 11.552 7.684 6.226c10.049 5.039 6.644 12.403 6.644 12.403l-4.146 61.047c-1.329 10.395-18.816 26.173-18.816 26.173-9.838 9.601-14.864 2.669-14.864 2.669l-52.471-29.262-42.985 19.547c-19.084 13.066-27.964-2.45-27.964-2.45l-10.471-15.515 0.8-79.2c22.063-5.301 8.531-13.452 8.531-13.452l-24.055-14.403c-8.906-4.694-2.126-11.665-2.126-11.665 6.008-9.607 14.882-1.874 14.882-1.874 8.452 4.325 12.232 1.975 12.232 1.975 6.486-0.706 2.629-8.408 2.629-8.408l-20.255-13.646c-3.43-4.275 1.725-8.126 1.725-8.126 8.084-6.914 12.31-1.87 12.31-1.87l84.743 41.732 53.96-27.198c23.816-16.121 29.693-2.581 29.693-2.581 7.123 9.282-6.434 13.846-6.434 13.846l-17.915 11.189c-8.027 5.727 3.829 6.151 3.829 6.151l16.161-2.275c12.729-1.426 11.428 5.119 11.428 5.119 4.198 6.989-6.434 12.296-6.434 12.296" fill="#2e3092"/></g><g transform="translate(501.05 476.31)"><path d="m0 0-3.536 66.192-44.686 18.122-1.726-63.736z" fill="none" stroke="#231f20" stroke-width=".086"/></g><g transform="translate(519.79 476.39)"><path d="m0 0-4.148 66.373 42.958 22.667 8.877-63.292z" fill="none" stroke="#231f20" stroke-width=".086"/></g><g transform="translate(456.37 548.43)"><path d="m0 0c2.076-0.712 1.49-1.787 3.587-2.582 1.997-0.787 2.501 0.263 4.548-0.5 1.965-0.825 1.461-1.869 3.508-2.588 1.993-0.869 2.497 0.238 4.519-0.45 2.022-0.9 1.57-1.95 3.564-2.744 2.072-0.787 2.604 0.319 4.626-0.475 1.99-0.794 1.487-1.901 3.455-2.638 1.993-0.788 2.497 0.294 4.572-0.443 1.969-0.851 1.433-1.851 3.376-2.669" fill="none" stroke="#231f20" stroke-width=".079"/></g><g transform="translate(454.99 542.16)"><path d="m0 0c2.072-0.788 1.536-1.895 3.558-2.688 2.101-0.794 2.501 0.337 4.576-0.45 2.072-0.763 1.49-1.869 3.587-2.663 1.914-0.744 2.472 0.319 4.49-0.475 2.022-0.844 1.49-1.844 3.565-2.638 1.968-0.794 2.548 0.256 4.623-0.532 2.022-0.787 1.436-1.819 3.458-2.581 2.044-0.769 2.497 0.287 4.44-0.481 2.044-0.732 1.512-1.87 3.429-2.688" fill="none" stroke="#231f20" stroke-width=".079"/></g><g transform="translate(455.41 534.51)"><path d="m0 0c2.022-0.681 1.464-1.794 3.536-2.637 1.994-0.789 2.577 0.318 4.544-0.476 2.023-0.738 1.462-1.844 3.537-2.612 1.993-0.788 2.551 0.293 4.491-0.476 2.078-0.819 1.571-1.869 3.614-2.638 2.076-0.869 2.554 0.238 4.63-0.5 2.019-0.794 1.54-1.875 3.454-2.631 1.966-0.801 2.501 0.256 4.466-0.481 2.047-0.794 1.49-1.901 3.483-2.638" fill="none" stroke="#231f20" stroke-width=".079"/></g><g transform="translate(454.72 526.33)"><path d="m0 0c2.075-0.763 1.543-1.9 3.561-2.689 2.073-0.737 2.58 0.339 4.523-0.456 2.044-0.731 1.537-1.868 3.611-2.656 1.994-0.769 2.501 0.287 4.441-0.482 2.1-0.793 1.568-1.844 3.64-2.631 2.047-0.8 2.526 0.256 4.601-0.537 2.018-0.738 1.515-1.845 3.455-2.632 1.993-0.738 2.497 0.312 4.494-0.45 2.019-0.77 1.542-1.814 3.532-2.613" fill="none" stroke="#231f20" stroke-width=".079"/></g><g transform="translate(455.52 517.73)"><path d="m0 0c1.968-0.719 1.461-1.844 3.561-2.588 1.969-0.843 2.476 0.294 4.523-0.525 2.019-0.763 1.54-1.85 3.508-2.632 2.019-0.8 2.469 0.282 4.518-0.481 2.073-0.738 1.54-1.85 3.559-2.694 2.076-0.763 2.554 0.319 4.68-0.476 1.914-0.737 1.543-1.874 3.454-2.638 1.969-0.737 2.501 0.32 4.469-0.443 2.019-0.743 1.487-1.825 3.508-2.669" fill="none" stroke="#231f20" stroke-width=".079"/></g><g transform="translate(454.45 510.45)"><path d="m0 0c2.021-0.738 1.546-1.875 3.618-2.638 2.019-0.737 2.497 0.344 4.494-0.45 2.047-0.793 1.564-1.869 3.583-2.663 1.972-0.737 2.475 0.344 4.469-0.45 2.072-0.787 1.568-1.925 3.615-2.688 2.018-0.769 2.501 0.288 4.648-0.5 1.943-0.794 1.439-1.85 3.379-2.613 1.994-0.769 2.551 0.288 4.519-0.45 2.019-0.843 1.54-1.95 3.455-2.694" fill="none" stroke="#231f20" stroke-width=".079"/></g><g transform="translate(455.14 502.27)"><path d="m0 0c2.126-0.85 1.568-1.9 3.64-2.689 2.076-0.799 2.472 0.257 4.544-0.48 2.022-0.794 1.519-1.869 3.541-2.614 1.992-0.787 2.468 0.294 4.49-0.5 2.075-0.793 1.568-1.869 3.615-2.688 2.047-0.762 2.551 0.313 4.573-0.481 2.021-0.737 1.489-1.794 3.508-2.632 1.993-0.737 2.443 0.313 4.522-0.424 1.99-0.795 1.487-1.901 3.4-2.663" fill="none" stroke="#231f20" stroke-width=".079"/></g><g transform="translate(552.8 554.32)"><path d="m0 0c-1.886-0.95-1.329-1.982-3.294-2.881-1.89-0.945-2.501 0.112-4.491-0.813-1.943-0.951-1.25-2.057-3.219-2.957-1.968-0.919-2.579 0.132-4.519-0.819-1.968-0.869-1.381-1.951-3.346-2.85-2.022-1-2.554 0.081-4.494-0.894-1.994-0.845-1.304-1.926-3.272-2.845-1.912-0.9-2.498 0.151-4.409-0.793-1.915-0.9-1.357-1.982-3.244-2.826" fill="none" stroke="#231f20" stroke-width=".079"/></g><g transform="translate(554.72 548.1)"><path d="m0 0c-1.918-0.925-1.304-1.981-3.301-2.932-1.968-0.893-2.525 0.107-4.465-0.794-1.937-0.887-1.328-1.95-3.186-2.843-1.969-0.981-2.658 0.106-4.548-0.845-1.94-0.925-1.408-2.006-3.322-2.9-1.965-0.931-2.658 0.05-4.573-0.85-1.886-0.888-1.275-1.975-3.19-2.894-1.968-0.901-2.576 0.125-4.465-0.744-1.911-0.95-1.301-1.95-3.269-2.95" fill="none" stroke="#231f20" stroke-width=".079"/></g><g transform="translate(555.04 540.47)"><path d="m0 0c-1.939-0.9-1.382-1.9-3.297-2.906-1.94-0.92-2.554 0.168-4.519-0.763-1.94-0.975-1.329-1.975-3.243-2.869-1.915-1.001-2.551 0.043-4.466-0.851-1.993-0.893-1.354-2-3.401-2.9-1.971-0.95-2.579 0.056-4.466-0.868-1.914-0.927-1.385-1.983-3.268-2.851-1.918-0.894-2.529 0.131-4.494-0.794-1.865-0.919-1.222-1.982-3.137-2.895" fill="none" stroke="#231f20" stroke-width=".079"/></g><g transform="translate(556.48 532.34)"><path d="m0 0c-2.075-0.95-1.386-2-3.354-2.932-1.912-0.919-2.547 0.138-4.544-0.812-1.965-0.951-1.304-1.925-3.241-2.876-1.942-0.925-2.499 0.131-4.439-0.819-2.022-0.925-1.383-1.957-3.377-2.931-1.914-0.919-2.579 0.081-4.544-0.814-1.968-0.95-1.329-1.981-3.19-2.85-1.915-0.893-2.554 0.132-4.465-0.762-1.89-0.982-1.304-2.007-3.244-2.932" fill="none" stroke="#231f20" stroke-width=".079"/></g><g transform="translate(556.48 523.74)"><path d="m0 0c-2.025-0.894-1.386-1.95-3.354-2.844-1.912-0.95-2.547 0.05-4.544-0.851-1.94-0.925-1.304-1.95-3.241-2.844-1.892-0.956-2.499 0.107-4.386-0.849-2.075-0.976-1.408-2.001-3.401-2.952-1.943-0.9-2.554 0.157-4.573-0.787-1.889-0.9-1.278-1.981-3.19-2.907-1.915-0.95-2.554 0.132-4.465-0.793-1.89-0.894-1.304-1.951-3.244-2.901" fill="none" stroke="#231f20" stroke-width=".079"/></g><g transform="translate(558.07 516.57)"><path d="m0 0c-1.968-0.95-1.275-1.95-3.347-2.906-1.918-0.945-2.476 0.062-4.469-0.789-1.915-0.95-1.357-2.006-3.244-2.893-1.94-0.982-2.554 0.156-4.519-0.8-1.939-0.951-1.329-2.057-3.269-2.957-1.94-0.919-2.604 0.137-4.544-0.869-1.993-0.844-1.382-1.894-3.243-2.82-1.915-0.95-2.497 0.132-4.465-0.793-1.94-0.951-1.276-1.95-3.19-2.901" fill="none" stroke="#231f20" stroke-width=".079"/></g><g transform="translate(558.07 508.33)"><path d="m0 0c-1.968-0.975-1.275-1.975-3.347-2.9-1.918-0.925-2.476 0.106-4.469-0.844-1.915-0.926-1.357-2.007-3.244-2.901-1.94-0.9-2.554 0.107-4.519-0.793-1.939-0.919-1.329-1.957-3.269-2.901-1.94-0.956-2.604 0.106-4.544-0.893-1.993-0.876-1.382-1.907-3.243-2.852-1.915-0.9-2.551 0.157-4.465-0.743-1.94-0.969-1.358-1.95-3.19-2.9" fill="none" stroke="#231f20" stroke-width=".079"/></g><g transform="translate(506.37 958.11)"><path d="m0 0 14.593-26.623 32.43-4.195-23.339-20.841 5.66-29.366-28.997 13.752-28.922-13.991 5.422 29.393-23.548 20.685 32.319 4.432z" fill="#231f20"/></g><g transform="translate(293.92 589.78)"><path d="m0 0 14.861-4.406c-5.158-1.982-10.156-6.202-13.903-10.658-0.693 4.85-1.304 9.92-0.958 15.064m-24.16-27.573 7.07 4.007 9.092 25.436c-0.693-8.971 1.486-19.31 3.029-27.705l8.984 3.932c8.135 19.016 20.998 13.271 26.157 19.078l-36.02 10.815 2.793 7.888 1.062 0.444c3.086 6.545 6.808 5.938 11.642 3.744l21.691-10.233 7.552 3.063-34.077 15.934 4.252 7.571-7.395-3.032-1.537-2.745h-5.426l-2.761-1.637c0.929-0.788 1.99-1.476 3.136-2.007 4.091-1.894 9.438-0.576 13.476-2.475l0.242-0.219c-4.15 0.087-11.274 1.781-14.303-3.582l-4.412-7.808 2.975 1.263-2.897-1.575-14.325-40.157" fill="#231f20"/></g><g transform="translate(314.69 638.61)"><path d="m0 0c0.9 1.218 2.39 1.318 3.347 0.687l-0.05-0.05c2.126-1.294 2.365-5.225 0.529-7.676-0.929-1.244-2.151-1.113-3.029-0.506-2.18 1.319-2.658 5.069-0.797 7.545m-4.626-12.034c4.04-2.475 10.684-0.106 14.035 4.413 3.24 4.351 2.579 10.265-1.146 12.584-4.013 2.482-10.552 0.631-13.9-3.801-3.187-4.276-2.734-10.814 1.011-13.196" fill="#231f20"/></g><g transform="translate(324.1 630.99)"><path d="m0 0-0.054-0.081z" fill="#231f20"/></g><g transform="translate(326.86 619.51)"><path d="m0 0c9.728 5.144 19.829 8.964 30.039 12.183l-4.069 2.538c-11.352-2.269-22.808-4.963-33.947-9.346z" fill="#231f20"/></g><g transform="translate(361.47 686.63)"><path d="m0 0c6.165 4.375 9.169 2.269 12.175-1.82l13.821-18.446 8.19-0.575-21.562 28.886 8.137 5.301 0.454-0.1 11.318 5.27c-2.387-6.383-3.133-11.634-0.05-17.197 3.668-6.439 13.182-12.983 23.709-8.126 4.097 1.9 6.884 5.907 5.105 9.101-1.382 2.481-5.344 3.138-8.72 1.557-3.03-1.394-4.251-4.695-3.083-6.808 0.56-0.9 2.047-1.293 3.325-1.056l-1.092-0.551c-5.051-2.406-10.152 3.458-11.642 6.139-5.794 10.352-1.594 15.622 8.294 24.835l7.177 2.501 5.741-17.647 9.037-3.137c1.169 6.225 5.581 12.607 12.597 16.721 0-2.425 0.35-4.851 1.065-7.145 1.489-4.645 4.333-8.783 7.309-12.828l5.665-0.5c-2.076 2.957-3.989 5.965-5.051 9.29-1.865 5.538-1.329 11.683 0.931 17.515l-10.394 2.219c-8.399-5.144-11.643-7.889-16.004-15.352l-4.251 12.658 38.277 10.608 0.454-0.313c5.873 0.313 7.362 1.207 11.774-2.113-3.322-0.793-7.259-5.119-7.152-7.626 0.186-2.694 3.644-4.807 7.47-4.588 3.19 0.131 5.316 1.925 6.963 3.763 1.303-1.913 4.04-3.112 7.129-2.95 3.294 0.106 6.484 2.319 6.324 4.751-0.107 3.062-3.404 5.438-6.966 6.669l1.168 1.276 2.768 0.656c3.241-0.844 7.92-4.225 8.027-6.914l0.958-20.078 7.016-4.138-1.858 33.268 9.141 0.394-6.83 4.644c-3.64 0-6.512 4.382-9.359 6.014 0.4-6.489 1.436-12.534 3.751-18.785-2.872 3.719-6.541 12.034-13.931 11.746-3.616-0.169-8.35-3.676-10.154-5.889-1.965 3.088-6.326 5.17-11.003 4.913l-12.013-0.587 0.739-0.549-54.995-15.704 3.322-1.262-1.593 0.344-28.711-13.428 1.011-0.218-4.516-3.007-4.733 2.375-3.218-0.206c0.293-1.169 0.879-2.244 1.594-3.219 2.632-3.407 8.001-4.563 10.555-8.045l0.107-0.213c-3.561 1.869-8.984 6.433-14.489 2.975l-7.945-4.85h0.368l-39.021-34.294 8.931 1.188 25.813 22.841 4.703-4.426-1.383 0.495c-3.615-0.475-3.561 0.737-7.123-2.344-1.49-1.401-2.337-4.67-2.736-6.302-3.112 0.207-6.46-1.613-8.96-3.856-4.891-4.326-3.987-10.871-0.479-14.14 4.466-4.17 11.989-2.638 17.572 2.269 1.783 1.587 4.598 6.045 3.002 7.57-2.126 1.931-6.777 3.588-9.993 0.719-2.128-1.901-3.004-5.126-1.246-6.702 0.396-0.325 0.925-0.643 1.567-0.718-1.756-0.869-3.964-1.238-5.186-0.107-2.39 2.188-1.568 6.07 1.383 8.658 2.579 2.238 8.001 4.301 10.259 2.056 0.397-0.318 0.614-0.768 0.718-1.187l2.447 3.926c-0.851 0.531-1.7 0.925-2.34 1.587-1.115 1.032-1.222 2.27 0.214 3.557 1.436 1.269 5.13 1.694 6.27 0.588l14.146-13.115 8.134 1.219-26.266 24.504 6.805 5.645z" fill="#231f20"/></g><g transform="translate(590.28 689.09)"><path d="m0 0c-1.033 4.925-4.012 9.308-8.346 13.258 5.023 0.375 10.05 0.219 15.258-0.631zm21.401-2.225c-0.614 1.562-2.314 2.907-4.175 3.775-2.976 1.35-6.22 0.919-7.442-1.325-1.304-2.262 1.193-5.532 4.145-6.851 4.307-1.957 9.091-0.688 10.873 2.35 3.162 5.745-0.693 16.009-9.12 19.491l0.482 0.794 20.413-9.289-3.483 7.045-51.649 23.353 3.83-7.132 25.145-11.389-0.503-0.95c-9.731 2.056-19.645 2.525-29.054 1.95l3.561-8.552c8.559-4.644 15.258-13.821 13.557-21.259l1.861-3.507 13.104 23.954c5.155-2.35 9.409-8.258 8.455-12.458" fill="#231f20"/></g><g transform="translate(634.44 650.8)"><path d="m0 0c6.351-5.169 13.739-5.67 18.34-0.95l0.079-0.107c2.233 2.351 2.714 3.695 1.886 7.201 3.272 0.344 6.302 2.038 8.377 4.089 3.351 3.487 0.662 9.983-3.722 13.571-5.899 4.663-18.343 9.414-23.181 4.326-2.444-2.432-1.968-5.839 1.597-8.608 2.022-1.657 4.915-2.763 6.648-1.001 1.114 1.107 1.804 2.851 1.271 4.67 3.562 0.269 9.117-1.869 12.282-4.35 1.965-1.588 2.711-3.851 1.222-5.333-0.957-0.968-2.579-1.344-4.277-0.968-0.56 1.075-1.356 2.082-2.289 2.844-2.633 2.031-6.588 2.081-8.32 0.206-2.018-1.975-1.118-5.195 1.596-7.408 1.144-0.924 2.684-1.581 4.148-1.744 0.211-1.106 0.318-2.188-0.454-2.95-2.682-2.75-7.733-0.956-10.87 1.632-9.838 7.863-7.309 25.06-3.883 32.842l-2.443 4.357c-4.919-10.87-12.682-30.473 1.993-42.319" fill="#231f20"/></g><g transform="translate(680.4 648.22)"><path d="m0 0 10.474-13.484-17.941-11.533c0.507 2.244 1.247 4.75 0.825 7.338 6.377 3.083 7.546 10.609 6.642 17.679m23.234-3.538c-1.065 2.981-1.222 6.019-2.633 8.914l0.028-0.1c3.294-2.22 5.741-5.62 7.656-9.233 4.84-9.183 6.219-19.841-1.515-25.517l-4.333 8.289c7.281 3.031 3.294 10.633 0.797 17.647m-43.144-0.419c-3.375-2.169-3.054-6.308-0.214-9.977 1.362-1.794 6.088-5.226 8.166-4.594 3.666-4.801-4.946-15.509-4.468-19.41l30.779 19.709 3.244-4.25-0.107-0.663 4.522-8.676-29.536-12.877-1.726-7.308 34.105 14.853 4.705-8.814 1.911 7.595-1.911 3.65c8.984 8.227 10.392 19.097 3.669 31.893-2.658 4.882-9.173 14.008-14.833 11.552-7.23-3.132 0.955-16.065 3.244-21.816 0.372-1 1.329-3.375 0.158-3.85-0.372-0.213-1.09 0-1.811 0.368l-0.583 1-0.157-0.656c-0.054 0.025-0.054 0.025-0.161 0.081l-26.156 33.981c-0.397-3.989-1.118-7.782-1.354-11.69-0.347-4.088 7.841-11.264 1.247-16.459-2.551 4.927-8.081 9.308-12.733 6.358" fill="#231f20"/></g><g transform="translate(688.26 419.06)"><path d="m0 0-14.458 7.495c5.848 0.662 11.643 3.769 16.561 7.751-0.082-5.063-0.557-10.126-2.103-15.246m17.175 102.07c1.804 1.719 3.879 3.432 5.105 5.782 7.123-0.55 12.703 5.063 16.214 11.527l0.662-16.565-21.981-0.744m30.114-26.273 1.998 2.376c-1.226 0.525-2.397 0.818-3.723 0.975-4.491 0.524-9.038-2.433-13.61-1.876l-0.215 0.156c3.912 1.138 11.217 1.82 12.07 7.808l1.219 10.845-0.264-0.237-1.54 41.975c-2.658-3.162-5.583-5.962-8.241-9.126-2.683-3.269-0.053-13.377-8.77-14.352 0.822 5.332-1.225 11.764-6.751 11.664-4.198-0.163-6.409-3.882-6.22-8.314 0.107-2.144 1.915-7.389 4.04-7.832 0.211-5.864-13.371-10.583-15.39-14.09l37.717 1.182 0.161-5.801-0.905-0.738c-0.424-9.314-4.225-9.89-9.516-9.289l-24.242 2.906-5.952-5.226 37.982-4.456-0.664-10.239-0.211-0.138-1.462-4.376-19.379 5.357-7.763-5.12c4.945-4.431 8.456-11.238 8.32-18.809-2.204 1.294-4.598 2.426-7.176 3.139-5.024 1.4-10.339 1.531-15.815 1.481l-3.509-4.063c3.88-0.056 7.707-0.212 11.321-1.163 6.167-1.769 11.457-5.439 15.579-10.502l7.68 6.707c-0.05 9.258-0.771 13.191-5.237 20.629l13.929-3.751-9.649-28.91-0.104-0.081-15.868-27.305c2.844 9.282 2.602 18.49 2.844 27.592l-9.677-2.482c-11.086-16.272-21.131-9.095-29.054-14.346l32.322-16.572-2.604-4.219-0.054-0.05c-6.38-8.02-9.891-6.782-14.143-3.769l-19.297 13.739-7.973-1.687 30.142-21.504-5.793-6.726 8.026 1.738 2.019 2.432 5.372-0.951 2.976 1.138c-0.746 0.968-1.593 1.838-2.604 2.556-3.669 2.563-9.198 2.157-12.814 4.714l-0.107 0.244c4.019-0.819 10.689-3.639 14.729 1.082l7.92 9.05-1.275-0.293 22.833 38.544-1.407-0.475 13.767 41.213-1.06-0.607v6.595l5.072 1.638" fill="#231f20"/></g><g transform="translate(672.1 440.17)"><path d="m0 0c-1.436-2.244-0.85-5.12 1.168-6.119 2.154-1.114 5.212 0.362 6.648 2.769 1.329 2.212 0.983 5.188-1.039 6.251-2.205 1.107-5.341-0.688-6.777-2.957z" fill="#231f20"/></g><g transform="translate(644.3 362.02)"><path d="m0 0-7.177 7.12c3.407 0.131 6.273-1.425 9.785 1.375 2.018 1.631 1.378 3.713 1.674 5.563 3.217-3.35 3.959-3.769 9.542-2.769zm20.998 20.466c-6.799-3.264-7.706-8.383-14.776-3.007 0 1.532-0.053 8.076 1.198 9.051 1.646 1.32 5.604-0.493 6.67-1.287l1.17 5.376c-3.564 1.137-10.315 2.213-14.142-0.9-6.541-5.376-0.56-14.878-4.783-18.303-4.576-3.695-10.689 2.262-12.918 4.432-1.704 1.819-3.218 3.931-4.947 5.8l-8.613-0.1 25.145-25.597-7.255-5.539-1.09 0.031c-6.405-4.088-9.302-1.875-12.096 2.244l-12.996 19.016-8.03 0.869 20.151-29.599-7.977-4.488 8.135-0.838 2.871 1.576 4.626-2.525 3.244 0.156c-0.268 1.05-0.85 2.162-1.543 3.162-2.339 3.539-7.709 4.908-10.155 8.445l-0.023 0.214c3.455-1.988 8.638-6.758 14.3-3.539l8.16 4.614h-0.504l40.16 32.217c-3.026-0.163-11.428-0.262-13.982-1.481" fill="#231f20"/></g><g transform="translate(452.17 319.67)"><path d="m0 0c0.158 5.151-4.786 10.239-11.324 12.402l2.765 9.551c0.743-2.113 2.286-4.188 4.412-5.831-1.861-9.102 12.12-14.909 12.281-15.591l0.743-2.669zm-5.505 1.932-0.743-0.425-7.577 1.793 1.25 4.064c0.4-0.056 0.876-0.056 1.329-0.163 3.162-0.762 6.513-2.556 5.741-5.269m110.08-0.107-6.219-1.113-6.384 28.917-7.519 3.145 7.469-33.274-9.199-1.738 0.161-0.106c-9.145-1.688-10.845-2.276-14.835 0.9 3.325 0.731 7.419 4.957 7.394 7.488-0.161 2.689-3.59 4.852-7.284 4.776-3.244-0.056-5.477-1.869-7.045-3.619-1.357 1.932-4.121 3.169-7.151 3.113-3.272-0.075-6.538-2.107-6.484-4.638 0.104-3.007 3.265-5.432 6.856-6.808l-1.223-1.212-2.793-0.582c-3.24 0.901-7.784 4.382-7.838 7.076l-0.4 20.098-6.887 4.325 0.957-33.318-13.553-0.874-0.268 0.293-6.909 1.638-2.075 3.375c3.561-1.082 6.222 0.607 6.912 3.026 0.743 2.482-1.118 5.551-4.677 6.42-3.618 0.868-6.194-0.657-7.794-2.745l-1.726-0.08c-2.6 0.58-4.622 3.063-4.09 5.013 0.132 0.418 0.316 0.793 0.583 1.162 3.722-1.162 8.348-0.131 9.223 2.738 0.718 2.588-1.939 5.388-5.451 6.226-2.629 0.638-5.662 0.238-7.441-1.262-7.92 5.119-4.094 11.82-9.728 17.202l-6.859-23.691c-1.225 0.181-2.554 0.238-3.854 0.55-2.179 0.556-6.723 2.457-6.062 4.538 0 0.138 0.16 0.344 0.349 0.451 1.009-1.295 2.924-1.795 4.623-2.213 1.701-0.319 4.944 1.419 5.212 2.581 0.876 2.875-3.668 5.02-6.858 5.807-4.784 1.051-7.498-1.687-8.349-4.638-1.486-5.126 4.362-10.114 10.875-11.589l2.839-0.576-1.168-3.807-21.716 6.364-0.504 1c-7.231 2.745-6.647 6.17-4.2 10.496l11.059 19.953-3.458 6.801-17.275-31.205-8.349 3.876 3.508-6.751 3.058-1.4v-4.983l1.783-2.406c0.9 0.868 1.646 1.794 2.229 2.826 2.047 3.768 0.507 8.6 2.554 12.345l0.161 0.181c-0.054-3.744-1.758-10.289 4.197-13.001l8.559-3.939-0.264 0.537 65.521-16.94-0.559 0.788c11.057 0.713 13.853-3.564 16.669-5.332-0.239 6.519-1.14 12.539-3.215 18.921 2.765-3.881 6.166-12.245 13.528-12.082 3.591 0.13 8.481 3.425 10.342 5.645 1.861-3.164 6.166-5.327 10.899-5.221l17.383 2.164-1.197 0.837 4.28 0.794 2.072-2.057c-2.683-5.644-5.69-9.176-13.929-10.689-10.366-1.869-18.843 1.4-27.749 4.119l2.975-3.775c9.731-3.457 18.662-6.489 30.276-4.376 8.323 1.582 17.254 8.339 15.768 14.746-0.321 1.557-2.608 2.344-4.151 3.038l12.017 2.163-7.602 3.588" fill="#231f20"/></g><g transform="translate(336.59 411.94)"><path d="m0 0c-1.065-5.02 0.05-11.133 2.071-16.459-4.862 2.15-9.885 4.5-14.35 7.613zm33.943-18.441c-3.375 2.744-9.062 3.982-11.641 1.238-2.101-2.162-0.265-5.964 2.579-8.152 2.658-2.113 5.794-1.768 7.574 0.082 0.614 0.632 0.399 2.106-0.054 2.95 4.018-3.694 1.596-10.864-0.901-13.614-7.791-8.02-15.979-5.801-31.661 0.843v0.213l-18.233 21.004c7.812-5.488 18.444-9.552 27.06-12.927l1.276 8.913c-12.865 16.678-0.559 23.323-2.98 30.424l-29.768-21.504-4.866 5.564 0.133 0.713c-5.156 7.257-2.526 9.764 2.129 12.165l21.448 10.944 1.329 7.339-33.466-17.046-4.572 7.388-1.275-7.282 1.678-2.719-3.008-4.195v-2.9c1.25 0.269 2.447 0.687 3.565 1.213 3.987 2.112 5.738 6.907 9.778 8.969l0.218 0.05c-2.343-3.137-7.766-7.676-4.548-12.927l5.527-8.913 0.104 0.581 27.463-31.449 0.054-0.156c0.104-0.106 0.157-0.106 0.264-0.238l0.532-0.581v0.288c15.205-9.021 28.255-5.72 34.612 0.843 5.128 5.383 8.503 15.884-0.35 22.879" fill="#231f20"/></g><g transform="translate(287.76 448.05)"><path d="m0 0c4.812 1.456 19.483 3.35 16.135 12.164-1.46 3.826-7.069 8.127-10.58 9.208 0.61 1.106 1.515 2.106 2.711 2.507 5.051 1.588 10.395-3.769 12.282-8.783 4.279-11.37-7.124-20.479-14.939-23.773l-0.215-3.219c11.432 3.744 28.657 12.771 22.224 29.867-3.723 9.602-11.375 13.402-19.67 10.764-4.626-1.456-9.095-6.257-9.095-11.845 1.811-2.431 8.271-3.007 10.957-7.52l-11.857-3.744-9.095 23.823-2.812-7.521 17.065-44.957 2.762 7.57z" fill="#231f20"/></g><g transform="translate(252.41 483.38)"><path d="m0 0 0.661-5.701 21.852-23.716-2.951 12.951z" fill="#231f20"/></g><g transform="translate(370 254.91)"><path d="m0 0 0.772 9.514s28.6-11.733 65.445-18.228c0 0 10.552-1 20.097-10.232 0.104-2.301 3.455-5.176-3.829-10.815 0 0-5.53-2.906-7.867-11.089 0 0-3.404-10.364-8.241 3.275 0 0 0.239 8.652 3.027 15.934 0 0-50.928 10.871-69.404 21.641" fill="#231f20"/></g><g transform="translate(725.69 283.4)"><path d="m0 0s-31.951 12.477-18.823 28.311c0 0 9.199 14.352 22.467 5.67 0 0 14.243-10.177-0.4-6.489 0 0-9.542-0.638-12.814-7.445 0 0-5.209-8.701 9.57-12.927l9.46-3.394s5.504-2.826 2.126-6.201c0 0-3.081-1.776-11.586 2.475" fill="#231f20"/></g><g transform="translate(209.55 634.34)"><path d="m0 0s17.411 8.257 14.543 22.866l-21.613 1.194s-7.68-3.007-7.68 3.219c0 0-1.701 3.614 8.823 2.482 0 0 17.97 2.263 27.458 1.688 0 0 59.067 119.08 245.11 141.09 0 0 6.062 13.927 17.493 6.25 0 0 14.351-6.094 13.025 3.933 0 0-4.333 17.727 0.636 25.085 0 0 8.081-2.288 10.717-10.364 0 0-4.711-3.744-3.965-12.396 0 0 7.659-20.922-15.815-22.641 0 0-117.49-0.744-191.41-66.324 0 0-51.201-43.507-67.945-74.087 0 0-0.321-25.11-20.258-25.273 0 0-16.691-3.744-9.117 3.276" fill="#231f20"/></g><g transform="translate(215.78 614.39)"><path d="m0 0s11.561-1.213 0.293 5.882l-24.084 6.389-16.747 4.244s-8.506 0.606-0.983-4.064c0 0 6.509-5.775 14.965-8.232 0 0 14.353-2.476 26.556-4.219" fill="#231f20"/></g><g transform="translate(189.3 607.48)"><path d="m0 0s-15.923 6.126 0.292 6.151c0 0 30.251-0.507 36.817-16.496 0 0 5.926-12.153-3.216-21.154 0 0-3.775-7.964-5.183 5.644 0 0 0.825 24.43-28.71 25.855" fill="#231f20"/></g><g transform="translate(184.31 573.13)"><path d="m0 0s16.397 6.807-0.347 12.346c0 0-8.081-0.951-7.816 6.776 0 0-2.393 5.282 13.879 2.244 0 0 19.666-3.664 17.064-16.303 0 0-9.702-15.984 3.19-24.061 0 0 19.43-9.232 11.35-29.048 0 0-3.966-18.865-30.491-14.927 0 0-19.007 8.495-1.702 4.563 0 0 19.114-4.276 19.297 21.735 0 0 1.25 14.565-13.025 12.983 0 0-23.017-3.219-7.466 9.839 0 0 8.745 7.732-2.472 8.946 0 0-6.459-0.344-1.461 4.907" fill="#231f20"/></g><g transform="translate(165.3 463.38)"><path d="m0 0s-20.681 1.444-9.624 8.577c0 0 29.932 11.183 49.948 2.919 0 0 2.419-2.42-6.087-3.051 0 0-24.456-2.538-34.237-8.445" fill="#231f20"/></g><g transform="translate(163.59 444.75)"><path d="m0 0s-7.759 2.457-2.708 8.971c0 0-2.019 3.744 18.687 5.088 0 0 23.684 5.938 29.214-6.432 0 0 5.527-9.264 7.334-24.961 0 0 20.841-46.62 50.905-79.57 0 0 24.056 8.815 35.702-5.088 0 0 7.973-20.109-5.426-7.445 0 0-6.431 10.496-25.464 3.589 0 0-4.093-16.41-18.344-11.821 0 0-3.028 5.913 0.347 14.54 0 0-27.936 32.899-43.779 69.098 0 0-17.012-11.927-23.18 5.383 0 0-8.506 21.415 8.719 18.015 0 0 8.802 1.876 3.03 13.54 0 0-4.094 10.833-19.991 3.738 0 0-4.837-5.639-15.046-6.645" fill="#231f20"/></g><g transform="translate(269.44 308.31)"><path d="m0 0s16.326 19.415 29.347 6.276l13.132-15.408s12.439-3.002 26.103-12.984c0 0 15.096-13.633 34.901-22.323l-1.675-8.701s-36.045 17.884-48.006 26.279c0 0-12.12 9.233-20.575 5.614 0 0-11.59-9.095-6.299 4.863 0 0 3.379 7.489-4.254 12.871 0 0-7.414 6.651-14.218 0.187l-3.408-4.113s-5.02-2.856-9.248-0.063c0 0-0.851 3.851 4.2 7.502" fill="#231f20"/></g><g transform="translate(501.88 214.01)"><path d="m0 0s6.963-13.584 9.674-1.001c0 0-6.006 16.515 5.847 16.278 0 0 9.678 0.525 14.461-6.676 0 0 6.248-6.964 6.431 3.376 0 0 0 13.139 18.979 4.694 0 0 6.145-2.288 6.541-8.708 0 0 3.723-5.851 13.028-2.475 0 0 16.958-3.163 15.39 20.847 0 0 50.395 11.346 74.293 29.205 0 0 14.779-18.553 27.539-25.886l-1.14 17.31s20.331-7.439 31.123-1.194l-7.974 8.739s-27.407-6.595-36.574 6.538c0 0-5.025 9.446 8.185 19.553 0 0 10.742 9.627-4.358 4.144 0 0-11.217-3.381-16.322-18.602 0 0-21.691-21.954-106.14-36.8 0 0-6.22-0.532-9.864-1.326 0 0-15.285 1.194-24.32-5.269 0 0-12.839 6.12-21.559 1.156 0 0-9.249-1.562-3.24-23.903" fill="#231f20"/></g><g transform="translate(752.35 324.87)"><path d="m0 0s-22.166 5.226-6.298 25.36c0 0 27.643 37.225 38.038 59.548 0 0 15.1 26.967 5.234 34.03 0 0-16.372 6.489-13.715 26.83 0 0-2.815 18.815 23.685 19.553 0 0 9.17-0.526 16.933-3.938 0 0 16.851-9.227-2.233-2.501 0 0-21.477 6.752-23.392-13.033 0 0-5.394-14.59 4.491-21.603 0 0 21.773-1.451 23.156-10.108 0 0-11.857 3.269-10.157-5.045 0 0-1.939-7.139 4.094-9.833 0 0 2.393-3.75-4.305-2.506 0 0-8.505-3.776 0-13.672 0 0 3.827-4.351-10.42-1.506l-37.48-58.322s-10.846-10.852-2.661-16.653l5.45-4.038s10.925-16.965-10.42-2.563" fill="#231f20"/></g><g transform="translate(810.86 615.74)"><path d="m0 0s-11.429-7.526-14.622 6.982c0 0-34.873 100.76-166.77 158.51 0 0-7.498-2.769-1.172 20.422 6.327 23.235 1.544 19.778-3.8 9.858 0 0-8.028-12.102-9.01-24.16 0 0-6.698-12.346 7.891-15.696 0 0 91.734-39.87 130.2-101.15 0 0 20.494-26.568 31.715-54.747 0 0 3.908-18.515 19.19-15.728l18.605 6.602s13.507 8.601-0.103 10.082c0 0-11.271 3.607-12.121-0.975" fill="#231f20"/></g><g transform="translate(530.4 840.14)"><path d="m0 0 0.076-33.524s2.607-12.139-7.492-12.934c0 0 0.744 5.226-0.4 18.529 0 0-1.514 26.061 7.816 27.929" fill="#231f20"/></g><g transform="translate(587.89 803.77)"><path d="m0 0s6.963-18.603-7.763-19.841c0 0-15.046-1.925-17.068 15.884 0 0 1.543 16.903-9.117-0.869 0 0-9.966-19.29 17.465-27.473 0 0 25.52-6.063 32.483 14.621 0 0 6.408 12.558-1.543 23.642 0 0-4.04 11.87-14.457-5.964" fill="#231f20"/></g><g transform="translate(807.51 586.9)"><path d="m0 0 25.064-1.869s-5.105-17.435-34.688-17.516c0 0-20.359-0.394-21.744 18.385 0 0 1.489 20.741 7.709 6.182 0 0 7.656-30.187 21.451-15.909 0 0 2.261 1.769 2.208 10.727" fill="#231f20"/></g><g transform="translate(592.68 827.3)"><path d="m0 0c0-2.407-2.1-4.357-4.783-4.357-2.554-0.026-4.734 1.95-4.734 4.301 0 2.375 2.126 4.326 4.734 4.382 2.629 0 4.783-1.957 4.783-4.326" fill="#231f20"/></g><g transform="translate(604.82 826.03)"><path d="m0 0c0-2.425-2.098-4.381-4.755-4.381-2.662 0-4.734 1.956-4.734 4.326 0 2.4 2.019 4.331 4.68 4.331 2.658 0 4.809-1.9 4.809-4.276" fill="#231f20"/></g><g transform="translate(843.63 618.83)"><path d="m0 0c0-2.751-2.337-4.963-5.394-4.963-2.979 0-5.423 2.212-5.476 4.882 0 2.775 2.497 4.932 5.422 5.018 3.029 0 5.397-2.193 5.448-4.937" fill="#231f20"/></g><g transform="translate(845.31 419.95)"><path d="m0 0c0-2.656-2.315-4.85-5.212-4.85-2.976 0-5.369 2.113-5.369 4.807 0 2.582 2.336 4.8 5.262 4.8s5.319-2.119 5.319-4.757" fill="#231f20"/></g><g transform="translate(834.09 428.58)"><path d="m0 0c0-2.664-2.39-4.776-5.287-4.776-2.9-0.025-5.319 2.056-5.319 4.75 0 2.639 2.315 4.771 5.237 4.771 2.979 0.055 5.316-2.082 5.369-4.745" fill="#231f20"/></g><g transform="translate(831.7 413.57)"><path d="m0 0c0-2.669-2.393-4.851-5.209-4.851-3.007 0-5.397 2.107-5.397 4.801 0 2.638 2.34 4.801 5.315 4.801 2.898 0 5.291-2.163 5.291-4.751" fill="#231f20"/></g><g transform="translate(732.63 351.23)"><path d="m0 0c0-2.644-2.365-4.807-5.316-4.882-2.897 0-5.237 2.163-5.237 4.794-0.054 2.695 2.286 4.807 5.237 4.807 2.872 0.081 5.316-2.057 5.316-4.719" fill="#231f20"/></g><g transform="translate(724.04 339.38)"><path d="m0 0c0-2.688-2.337-4.851-5.316-4.851-2.896 0-5.29 2.163-5.29 4.776 0 2.663 2.369 4.825 5.29 4.875 2.872 0 5.316-2.163 5.316-4.8" fill="#231f20"/></g><g transform="translate(597.35 206.1)"><path d="m0 0c0.053-2.663-2.309-4.801-5.155-4.851-2.948 0-5.291 2.132-5.37 4.801 0 2.663 2.368 4.857 5.291 4.857 2.872 0 5.234-2.138 5.234-4.807" fill="#231f20"/></g><g transform="translate(449.94 197.87)"><path d="m0 0c0.054-2.694-2.339-4.889-5.183-4.889-2.98-0.075-5.347 2.138-5.347 4.801s2.343 4.808 5.293 4.808c2.898 0 5.237-2.113 5.237-4.72" fill="#231f20"/></g><g transform="translate(506.21 253.35)"><path d="m0 0c0.053-2.638-2.315-4.832-5.24-4.832-2.923 0-5.26 2.113-5.26 4.807-0.053 2.632 2.284 4.751 5.206 4.801 2.979 0 5.294-2.169 5.294-4.776" fill="#231f20"/></g><g transform="translate(350.34 295.19)"><path d="m0 0c0.05-2.613-2.343-4.782-5.237-4.782-2.897 0-5.212 2.113-5.294 4.782 0 2.663 2.368 4.826 5.237 4.826 2.951 0 5.294-2.163 5.294-4.826" fill="#231f20"/></g><g transform="translate(336.08 303.44)"><path d="m0 0c0-2.638-2.391-4.745-5.284-4.8-2.929 0-5.319 2.118-5.319 4.8 0 2.669 2.39 4.801 5.237 4.801 2.95 0 5.366-2.107 5.366-4.801" fill="#231f20"/></g><g transform="translate(289.14 331.3)"><path d="m0 0c0.026-2.682-2.339-4.794-5.237-4.794-2.925 0-5.315 2.112-5.315 4.719 0 2.663 2.39 4.832 5.262 4.832 2.872 0.025 5.29-2.113 5.29-4.757" fill="#231f20"/></g><g transform="translate(432.68 202.4)"><path d="m0 0c0-2.688-2.365-4.801-5.237-4.801-2.897-0.05-5.316 2.113-5.316 4.751-0.051 2.638 2.315 4.801 5.265 4.851 2.869 0 5.288-2.163 5.288-4.801" fill="#231f20"/></g><g transform="translate(555.2 203.48)"><path d="m0 0c0-2.663-2.393-4.776-5.266-4.826-2.975 0-5.287 2.113-5.287 4.776-0.107 2.663 2.312 4.801 5.209 4.826 2.951 0 5.344-2.163 5.344-4.776" fill="#231f20"/></g></g></g></g></svg>
